<svg xmlns="http://www.w3.org/2000/svg" viewBox="0 0 494.84 363.51"><defs><style>.cls-1{fill:#f8f4ae;}.cls-2{fill:#c9bfde;}.cls-3{fill:#c6e7e4;}.cls-4{fill:#bee7fb;}.cls-10,.cls-11,.cls-5,.cls-6,.cls-7{fill:none;}.cls-10,.cls-5,.cls-6,.cls-7{stroke:#4a96d2;}.cls-5{stroke-linecap:round;}.cls-5,.cls-6{stroke-linejoin:round;}.cls-6,.cls-7{stroke-linecap:square;}.cls-10,.cls-7{stroke-miterlimit:10;}.cls-8{fill:#4a96d2;}.cls-9{fill:#e2f4fc;}</style></defs><title>Asset 1</title><g id="Layer_2" data-name="Layer 2"><g id="Layer_1-2" data-name="Layer 1"><path class="cls-1" d="M82,302.74c-3.08-.58-13.22-2.2-13.22-2.2a45.12,45.12,0,0,0-.63-5.78l-1.25-3.18c-1.57-4-4.29-10.92-6.35-16.21,0,0,8.19-8.53,16.77-4.11v6.17l1.54,9.92,2,12.58Z"/><path class="cls-2" d="M252.15,78.28,250.49,99.8l-25,31-2-14-6,1-5.23-7.42,3.6-3.58s6.25,1.13,7.63,0C224.56,105.92,243.79,86.66,252.15,78.28Z"/><path class="cls-3" d="M441.65,156.71l-14,14.53-42.79-8.44-10.33-18.6,7.67-26.4,9.66-5.18-3.35-20.18a5.08,5.08,0,0,1,4.09,1.93Z"/><path class="cls-4" d="M323.62,83.22l-38,23.32L266.86,85.73l50.56-40.54a5.13,5.13,0,0,1,4.82-.87l-12.62,29.9,10,2Z"/><path class="cls-5" d="M319.24,129.42l-23-18.5-6.5,1L266.23,85.8l-7.49-8.33a3.89,3.89,0,0,0-5.65-.15c-7.76,7.78-28.49,28.56-29.6,29.47-1.37,1.13-7.62,0-7.62,0s-26,25.75-26,26.38"/><path class="cls-5" d="M266.23,85.8l50.55-40.54a5.17,5.17,0,0,1,7,.47l20.73,21.81,4.12-1.25a2.48,2.48,0,0,1,2.68.85L377,100.3"/><polyline class="cls-5" points="284.97 106.62 322.99 83.3 318.99 76.3 308.99 74.3 321.61 44.39"/><line class="cls-5" x1="307.99" y1="57.3" x2="311.99" y2="57.3"/><line class="cls-5" x1="300.99" y1="63.3" x2="307.99" y2="63.3"/><line class="cls-5" x1="293.99" y1="69.3" x2="306.99" y2="69.3"/><line class="cls-5" x1="283.99" y1="75.3" x2="301.99" y2="75.3"/><line class="cls-5" x1="278.99" y1="82.3" x2="307.99" y2="82.3"/><line class="cls-5" x1="278.99" y1="89.3" x2="301.99" y2="89.3"/><path class="cls-5" d="M283,95.3"/><line class="cls-5" x1="291.99" y1="95.3" x2="282.99" y2="95.3"/><polyline class="cls-5" points="212.26 110.38 217.49 117.8 223.49 116.8 225.49 130.8 250.49 99.8 252.15 78.27"/><line class="cls-5" x1="247.49" y1="90.8" x2="243.49" y2="90.8"/><line class="cls-5" x1="238.36" y1="97.8" x2="245.36" y2="97.8"/><line class="cls-5" x1="234.49" y1="104.8" x2="239.49" y2="104.8"/><line class="cls-5" x1="225.49" y1="110.8" x2="235.49" y2="110.8"/><line class="cls-5" x1="227.49" y1="117.8" x2="231.49" y2="117.8"/><circle class="cls-5" cx="256.49" cy="56.8" r="2"/><circle class="cls-5" cx="336.99" cy="22.3" r="2"/><circle class="cls-5" cx="358.99" cy="44.3" r="2"/><circle class="cls-5" cx="419.99" cy="91.3" r="2"/><circle class="cls-5" cx="212.99" cy="44.3" r="2"/><circle class="cls-1" cx="447.99" cy="92.3" r="4.5"/><circle class="cls-5" cx="447.99" cy="92.3" r="4.5"/><circle class="cls-5" cx="177.99" cy="92.3" r="4.5"/><polygon class="cls-5" points="386.26 56.92 388.49 51.8 390.32 56.98 395.99 59.3 390.57 60.73 388.06 67.23 386.01 60.73 380.7 59.29 386.26 56.92"/><path class="cls-5" d="M229.63,185.21s14-13,17-22v116"/><path class="cls-5" d="M263.63,186.21s-17-16-17-23"/><polyline class="cls-5" points="268.63 206.21 246.63 181.54 224.63 205.21"/><path class="cls-5" d="M267.63,223.21s-17-15-21-26.17c-5,12.17-22,26.17-22,26.17"/><path class="cls-5" d="M267.63,240.21s-18-16-21-26c-6,12-22,26-22,26"/><path class="cls-5" d="M235.63,253.21s10-8.33,11-14.17c1,6.33,10,14.17,10,14.17"/><path class="cls-5" d="M370.74,187.47s14-11.83,17-20V273"/><path class="cls-5" d="M404.74,188.38s-14.37-14.57-17-20.92"/><polyline class="cls-5" points="409.74 206.57 387.74 184.13 365.74 205.66"/><path class="cls-5" d="M408.74,222s-17-13.64-21-23.8c-5,11.07-22,23.8-22,23.8"/><path class="cls-5" d="M408.74,237.5s-18-14.55-21-23.65c-6,10.92-22,23.65-22,23.65"/><path class="cls-5" d="M376.74,249.33s10-7.58,11-12.89c1,5.76,10,12.89,10,12.89"/><path class="cls-5" d="M164.3,166.24s12.57-11.67,15.26-19.75V250.63"/><path class="cls-5" d="M194.82,167.14s-15.26-14.36-15.26-20.65"/><polyline class="cls-5" points="199.31 185.09 179.56 162.95 159.81 184.2"/><path class="cls-5" d="M198.41,200.36s-15.26-13.47-18.85-23.49c-4.49,10.92-19.75,23.49-19.75,23.49"/><path class="cls-5" d="M198.41,215.62s-16.16-14.36-18.85-23.34c-5.39,10.77-19.75,23.34-19.75,23.34"/><path class="cls-5" d="M169.69,227.29s9-7.48,9.88-12.72c.9,5.69,9,12.72,9,12.72"/><path class="cls-5" d="M380.49,271.8"/><line class="cls-6" x1="325.41" y1="262.56" x2="355.97" y2="262.56"/><line class="cls-6" x1="325.41" y1="268.47" x2="355.97" y2="268.47"/><line class="cls-6" x1="325.41" y1="274.7" x2="355.97" y2="274.7"/><line class="cls-6" x1="325.41" y1="280.61" x2="355.97" y2="280.61"/><line class="cls-6" x1="282.23" y1="262.56" x2="312.75" y2="262.56"/><line class="cls-6" x1="282.23" y1="268.47" x2="312.75" y2="268.47"/><line class="cls-6" x1="282.23" y1="274.7" x2="312.75" y2="274.7"/><line class="cls-6" x1="282.23" y1="280.61" x2="312.75" y2="280.61"/><polygon class="cls-5" points="350.55 183.26 340.21 174.43 340.21 162.67 350.55 162.67 350.55 183.26"/><rect class="cls-7" x="282.23" y="224.29" width="73.74" height="33.25"/><polyline class="cls-5" points="282.24 241.41 282.24 188.39 319.11 156.14 355.97 188.39 355.97 242.65"/><path class="cls-8" d="M291.88,258.05v26.37h-9.65V258.05h9.65m1-1H281.23v28.37h11.65V257.05Z"/><path class="cls-8" d="M356,258.05v26.37h-9.65V258.05H356m1-1H345.33v28.37H357V257.05Z"/><rect class="cls-5" x="270.03" y="253.85" width="98.78" height="3.69"/><rect class="cls-6" x="281.72" y="284.81" width="74.71" height="4.67"/><rect class="cls-9" x="312.73" y="196.6" width="12.76" height="12.45"/><rect class="cls-5" x="312.73" y="196.6" width="12.76" height="12.45"/><rect class="cls-5" x="301.84" y="232.07" width="34.54" height="21.63"/><rect class="cls-10" x="313.32" y="262.56" width="11.51" height="22.25"/><line class="cls-10" x1="322.38" y1="274.98" x2="322.38" y2="272.72"/><line class="cls-5" x1="355.97" y1="258.05" x2="355.97" y2="284.81"/><line class="cls-10" x1="287.21" y1="253.7" x2="287.21" y2="243.12"/><line class="cls-10" x1="290.95" y1="253.7" x2="290.95" y2="243.12"/><line class="cls-10" x1="294.68" y1="253.7" x2="294.68" y2="243.12"/><line class="cls-10" x1="298.41" y1="253.7" x2="298.41" y2="243.12"/><line class="cls-10" x1="306.19" y1="253.7" x2="306.19" y2="243.12"/><line class="cls-10" x1="309.93" y1="253.7" x2="309.93" y2="243.12"/><line class="cls-10" x1="317.7" y1="253.7" x2="317.7" y2="243.12"/><line class="cls-10" x1="313.76" y1="253.7" x2="313.76" y2="243.12"/><line class="cls-10" x1="321.44" y1="253.7" x2="321.44" y2="243.12"/><line class="cls-10" x1="325.48" y1="253.7" x2="325.48" y2="243.12"/><line class="cls-10" x1="329.22" y1="253.7" x2="329.22" y2="243.12"/><line class="cls-10" x1="332.95" y1="253.7" x2="332.95" y2="243.12"/><line class="cls-10" x1="340.73" y1="253.7" x2="340.73" y2="243.12"/><line class="cls-10" x1="344.46" y1="253.7" x2="344.46" y2="243.12"/><line class="cls-10" x1="348.51" y1="253.7" x2="348.51" y2="243.12"/><line class="cls-5" x1="355.97" y1="253.7" x2="355.97" y2="243.12"/><line class="cls-10" x1="352.14" y1="253.7" x2="352.14" y2="243.12"/><line class="cls-10" x1="360.02" y1="253.7" x2="360.02" y2="243.12"/><line class="cls-10" x1="363.75" y1="253.7" x2="363.75" y2="243.12"/><line class="cls-10" x1="277.88" y1="253.7" x2="277.88" y2="243.12"/><line class="cls-10" x1="274.15" y1="253.7" x2="274.15" y2="243.12"/><line class="cls-5" x1="269.95" y1="243.27" x2="368.72" y2="243.27"/><path class="cls-5" d="M388.28,93.3l3.21,19.32-9.67,5.18-7.67,26.4,10.33,18.6,43.12,8.44,13.83-14.81L432,144.3,392.23,94.37a5.12,5.12,0,0,0-7.26-.76l-41.23,33.94L329,125l-55.5,37.75"/><line class="cls-5" x1="319.1" y1="156.14" x2="319.1" y2="196.45"/><line class="cls-5" x1="319.1" y1="209.05" x2="319.1" y2="224.22"/><path class="cls-5" d="M319.26,211.14"/><line class="cls-5" x1="319.1" y1="162.67" x2="282.23" y2="194.89"/><line class="cls-5" x1="319.1" y1="163.09" x2="354.83" y2="194.21"/><line class="cls-7" x1="350.55" y1="190.63" x2="350.55" y2="223.79"/><line class="cls-7" x1="339.87" y1="181.38" x2="339.87" y2="223.79"/><line class="cls-7" x1="298.41" y1="181.38" x2="298.41" y2="223.79"/><line class="cls-5" x1="287.66" y1="190.15" x2="287.66" y2="224.22"/><line class="cls-5" x1="393.61" y1="104.68" x2="396.36" y2="104.68"/><line class="cls-5" x1="395.11" y1="111.22" x2="400.55" y2="111.22"/><line class="cls-5" x1="390.36" y1="117.04" x2="405.86" y2="117.04"/><line class="cls-5" x1="387.74" y1="123.66" x2="409.99" y2="123.66"/><line class="cls-5" x1="414.74" y1="130.84" x2="381.74" y2="130.84"/><path class="cls-5" d="M380.43,137.16"/><path class="cls-5" d="M420.05,137.16"/><path class="cls-5" d="M381.09,138c.44-.06,38.38,0,38.38,0"/><line class="cls-5" x1="393.61" y1="145.35" x2="426.91" y2="145.35"/><line class="cls-5" x1="389.05" y1="145.35" x2="380.43" y2="145.35"/><path class="cls-5" d="M383.68,153.72"/><line class="cls-5" x1="430.49" y1="153.72" x2="416.24" y2="153.72"/><line class="cls-5" x1="407.49" y1="153.72" x2="386.99" y2="153.72"/><path class="cls-5" d="M237.63,272.87"/><line class="cls-5" x1="234.34" y1="255.99" x2="225.84" y2="255.99"/><line class="cls-5" x1="220.55" y1="255.99" x2="175.5" y2="255.99"/><line class="cls-5" x1="206.79" y1="265.8" x2="234.92" y2="265.8"/><line class="cls-5" x1="183.19" y1="265.8" x2="201" y2="265.8"/><line class="cls-5" x1="197.26" y1="276.06" x2="236.82" y2="276.06"/><line class="cls-5" x1="214.7" y1="287.61" x2="237.11" y2="287.61"/><line class="cls-5" x1="408.65" y1="246.66" x2="418.77" y2="246.66"/><line class="cls-5" x1="425.06" y1="246.66" x2="478.68" y2="246.66"/><line class="cls-5" x1="441.44" y1="256.47" x2="407.96" y2="256.47"/><line class="cls-5" x1="469.52" y1="256.47" x2="448.33" y2="256.47"/><line class="cls-5" x1="452.78" y1="266.73" x2="405.7" y2="266.73"/><line class="cls-5" x1="432.02" y1="278.28" x2="405.35" y2="278.28"/><polygon class="cls-1" points="262.49 0.5 266.02 6.96 272.49 10.5 266.02 14.04 262.49 20.5 258.95 14.04 252.49 10.5 258.95 6.96 262.49 0.5"/><polygon class="cls-5" points="264.49 0.5 268.02 6.96 274.49 10.5 268.02 14.04 264.49 20.5 260.95 14.04 254.49 10.5 260.95 6.96 264.49 0.5"/><polygon class="cls-1" points="215.43 68.19 217.45 71.9 221.16 73.92 217.45 75.95 215.43 79.65 213.4 75.95 209.7 73.92 213.4 71.9 215.43 68.19"/><polygon class="cls-5" points="216.43 69.57 218.45 73.27 222.16 75.3 218.45 77.32 216.43 81.03 214.4 77.32 210.7 75.3 214.4 73.27 216.43 69.57"/><path class="cls-1" d="M114.78,271a79.91,79.91,0,0,0-1-12.88,41.74,41.74,0,0,1-.53-9.19s10.56-6.82,17.54-2l-1.26,6.22L127.65,274s.12-4.24.62.63c-6,2.94-14,.21-14,.21Z"/><path class="cls-2" d="M84.06,152l-20.19-2.12-11.93-4.63a133.59,133.59,0,0,0-15.57-3.94c-9.56-15.81,5.57-21.12,5.57-21.12s10.25,2.25,14.75,2.62c4.31-.93,14.56,3.94,14.56,3.94s11.5,1.31,13,4.81C75.56,140.54,78.81,150.48,84.06,152Z"/><path class="cls-5" d="M87.85,139.19v.31s-.19,7.56-3.5,7.75-2.5-12.75,4.06-13.44.94,19.63-4.31,18.13-8.5-11.44.19-20.44c-1.5-3.5-13-4.81-13-4.81S61,121.82,56.73,122.76c-4.5-.37-14.75-2.62-14.75-2.62s-15.12,5.31-5.56,21.13A132.85,132.85,0,0,1,52,145.19l11.94,4.63,18.5,2.2"/><path class="cls-5" d="M56.55,122.74a17.1,17.1,0,0,0-5.76,13.34c.05,7.59,2.08,9.46,2.08,9.46"/><path class="cls-5" d="M70.06,126.57s-10.35,7.35-2.12,23.73"/><path class="cls-5" d="M75.12,127.32s-10,8-2.54,23.53"/><path class="cls-5" d="M93.67,161.76l9.5,30.17s19,16,22.83,27.17c5-5,11.33-16.17,11.33-21.5l-7.67-7-4-.17-4.33-6.5L117,179.76s-4.83-35.17-15.83-37c-9.17-.5-15.5,12.17-7.5,33l4.5,11.33s-3.17,12.67-5.83,17c-6.17,4.33-17.17,9.67-29.17,5.5-7.5-6.5-19.16-17.87-16.08-65.85,0,0-6.25-16.48,4.69-21.68"/><polyline class="cls-5" points="76.33 155.09 77.67 183.09 82.17 190.76 86.17 199.59 92.33 204.09"/><path class="cls-5" d="M55.67,186.59s13.5.5,16-.67"/><path class="cls-3" d="M51.83,152s14.83.26,19.83,5.23c.5,13.5,1.33,22.33,1.33,22.33s-1.46,2.92-4.46,2.79c-3.75-.25-12,0-12,0a5.09,5.09,0,0,1-3.76-5.25C52,167.38,51.83,152,51.83,152Z"/><path class="cls-5" d="M51.83,152s14.83.26,19.83,5.23c.5,13.5,1.33,22.33,1.33,22.33s-1.46,2.92-4.46,2.79c-3.75-.25-12,0-12,0a5.09,5.09,0,0,1-3.76-5.25C52,167.38,51.83,152,51.83,152Z"/><path class="cls-5" d="M56.55,157.13s7-.37,10.86,2.5"/><path class="cls-5" d="M59.33,206s1.21,19.91-1.29,25.91c5.25-1.5,14.25-1.12,14.25-1.12l4-6.75,1.21,7.88,7.5,3s15.52-.94,22.41-6.24a10.3,10.3,0,0,0,1.71-1.64,145.18,145.18,0,0,0,14.78-12.24"/><path class="cls-5" d="M107.45,228.64,117.67,234l-4.12,11s-.87,7.5.25,13.12a79.16,79.16,0,0,1,1,12.88l-.62,5-2.62,6.75s19.38,2.29,22.88,2.38c-.5-4.87-6.75-11.12-6.75-11.12l1.88-20.87L132.42,239s4.92-13.12-4.41-22.16"/><path class="cls-5" d="M114.17,243.32s9.77-7.62,17.59-1.09"/><path class="cls-5" d="M113.26,248.94s10.56-6.82,17.54-2"/><path class="cls-11" d="M99.78,363.51s10.56-6.82,17.54-2"/><path class="cls-5" d="M114.31,274.85s8.25,2.92,14-.21"/><path class="cls-5" d="M62,231.13l-.62,12.19s-4.12,22.31-1.12,30.06,8.38,21.38,8.38,21.38,1.5,7.88,0,13.13"/><polyline class="cls-5" points="82.72 233.95 77.83 252.42 77.83 277.42 81.33 299.92 84.33 307.09 88.83 311.59"/><polyline class="cls-5" points="92.33 311.59 85.17 313.26 73.83 313.26 68.67 314.09 65.33 312.84"/><path class="cls-5" d="M69.33,300.51s10.27,1.85,13.26,2.43"/><path class="cls-5" d="M85.52,313.17s-5.85-6.42-11.1-5.29-2.33,5.66-2.33,5.66"/><path class="cls-5" d="M59.58,270.58s8.83-9.9,18.25-4.74"/><path class="cls-5" d="M61.06,275.37s8.19-8.53,16.77-4.11"/><path class="cls-5" d="M76.92,124.38s21.25-.87,25.38-7.12c-6.88-12.62-13.88-25.62-19.5-21.5S77.54,109.51,76.92,124.38Z"/><path class="cls-5" d="M77.14,118.57s18.55,1.12,22.23-6.66"/><path class="cls-5" d="M100.23,113.49s13-4.69,14.52,0-14.92,11.9-28,13.08-10.42.75-10.42.75"/><path class="cls-5" d="M76.92,118s-12.19,1.56-10.75,6.38"/><polyline class="cls-5" points="93.4 125.53 96.25 128.42 98.33 132.84 102.29 135.42 105.75 137.34 105.23 145.1"/><polyline class="cls-5" points="100.46 123.59 100.46 127.4 103.75 132.17 102.29 133.26 102.29 135.42"/><path class="cls-5" d="M137.33,198.8l1.66-.24,6.8-1,3,4.54-3.83,8.5-2.62-3s-2.62-1.75-5.25,1.29a13,13,0,0,1-2.17-3.31"/><path class="cls-5" d="M139.23,194.88s2.69-1.25,4.69-.37a17.61,17.61,0,0,1,0,3.35l-4.92.7Z"/><path class="cls-5" d="M138.66,207.68l-.37,21,.7,0,4.36.27-1.19-12.09.21-9.18A2.87,2.87,0,0,0,138.66,207.68Z"/><polygon class="cls-5" points="138.29 312.84 139 228.68 142.17 228.94 140.85 311.94 140.82 313.54 138.29 312.84"/><polygon class="cls-5" points="142.51 311.63 140.98 312.23 141.35 317.26 143.95 314.26 142.51 311.63"/><ellipse class="cls-5" cx="138.26" cy="315.98" rx="3.06" ry="3.25"/><path class="cls-5" d="M76.92,117.26S53,98.13,51.79,83.76c-1.37,8.13,2.75,27.65,20.08,29.17"/><path class="cls-5" d="M71.88,112.92S61.42,98.34,51.79,83.76"/><line class="cls-5" x1="0.5" y1="326.92" x2="67.41" y2="291.58"/><polyline class="cls-5" points="79.38 287.34 111.54 282.76 134.42 285.13 138.5 287.34"/><polyline class="cls-5" points="228.17 325.01 179.67 314.09 141.48 289.51"/><line class="cls-5" x1="54.04" y1="96.44" x2="56.55" y2="97.57"/><line class="cls-5" x1="55.79" y1="99.69" x2="58.73" y2="100.51"/><line class="cls-5" x1="58" y1="103.67" x2="60.67" y2="103.67"/><line class="cls-5" x1="494.34" y1="169.54" x2="441.44" y2="156.43"/></g></g></svg>