<svg xmlns="http://www.w3.org/2000/svg" viewBox="0 0 429.82 215.49"><defs><style>.cls-1{fill:#cbe6ca;}.cls-2{fill:#f2fafd;}.cls-3{fill:#bee7fb;}.cls-4{fill:#dfecb8;}.cls-11,.cls-12,.cls-13,.cls-14,.cls-15,.cls-16,.cls-17,.cls-18,.cls-19,.cls-20,.cls-21,.cls-5{fill:none;}.cls-11,.cls-12,.cls-14,.cls-15,.cls-16,.cls-17,.cls-18,.cls-19,.cls-20,.cls-21,.cls-5,.cls-7,.cls-8,.cls-9{stroke:#4a96d2;}.cls-11,.cls-12,.cls-14,.cls-16,.cls-18,.cls-5,.cls-7,.cls-8{stroke-linecap:round;}.cls-11,.cls-12,.cls-14,.cls-18,.cls-5,.cls-7,.cls-8{stroke-linejoin:round;}.cls-6{fill:#e2f4fc;}.cls-7,.cls-8,.cls-9{fill:#fff;}.cls-11,.cls-7{stroke-width:1.01px;}.cls-18,.cls-8{stroke-width:1.05px;}.cls-15,.cls-17,.cls-19,.cls-20,.cls-9{stroke-linecap:square;}.cls-15,.cls-16,.cls-17,.cls-19,.cls-20,.cls-21,.cls-9{stroke-miterlimit:10;}.cls-20,.cls-9{stroke-width:1.05px;}.cls-10{fill:#c3e8f6;}.cls-12{stroke-width:0.94px;}.cls-14{stroke-width:0.89px;}.cls-15{stroke-width:1.08px;}.cls-16{stroke-width:1.01px;}.cls-19{stroke-width:2px;}.cls-22{fill:#4a96d2;}</style></defs><title>Asset 2</title><g id="Layer_2" data-name="Layer 2"><g id="Layer_1-2" data-name="Layer 1"><path class="cls-1" d="M100.72,0" transform="translate(0 -49.8)"/><polygon class="cls-2" points="236.08 99.84 244.74 85.68 253.89 79.76 257.93 68.99 282.15 46.92 302.88 63.34 309.61 81.1 334.38 86.48 350.79 93.75 368.56 120.94 379.6 123.63 389.02 143.01 405.3 164.55 301.37 164.55 246.41 172.23 246.41 164.55 194.87 164.55 236.08 99.84"/><polygon class="cls-3" points="103.58 83.72 84.08 118.86 70.86 122.18 57.1 134.06 33.91 159.18 30.15 162.96 0.5 166.74 43.29 119.61 72.36 109.92 103.58 83.72"/><polygon class="cls-4" points="405.47 164.57 356.88 164.57 347.73 151.74 333.73 128.99 317.85 105.75 300.35 95.84 294.43 78.7 287.16 68.74 282.32 46.94 303.05 63.36 309.77 81.13 334.54 86.51 350.96 93.78 368.72 120.96 379.76 123.65 389.18 143.04 405.47 164.57"/><path class="cls-5" d="M279.73,217.49V123.7c-3.79,5.36-14.41,18.65-14.41,18.65" transform="translate(0 -49.8)"/><path class="cls-5" d="M294.14,143.2S283,128,279.73,123.7" transform="translate(0 -49.8)"/><polyline class="cls-5" points="298.38 110.35 279.73 89.44 261.08 109.5"/><path class="cls-5" d="M297.53,174.56s-10.6-13.32-17.8-22.18c-7.21,9-18.65,22.18-18.65,22.18" transform="translate(0 -49.8)"/><path class="cls-5" d="M297.53,189s-11-13.57-17.8-22c-6.89,9-18.65,22-18.65,22" transform="translate(0 -49.8)"/><path class="cls-5" d="M269.88,198.93s6.81-10,9.84-16.29c2.67,6.11,10,16.29,10,16.29" transform="translate(0 -49.8)"/><path class="cls-5" d="M19.5,123s10.63-13.29,14.41-18.65V180" transform="translate(0 -49.8)"/><path class="cls-5" d="M48.32,123.87s-11.11-15.16-14.41-19.5" transform="translate(0 -49.8)"/><polyline class="cls-5" points="52.55 91.03 33.91 70.12 15.26 90.18"/><path class="cls-5" d="M51.71,155.23s-10.6-13.32-17.8-22.18c-7.21,9-18.65,22.18-18.65,22.18" transform="translate(0 -49.8)"/><path class="cls-5" d="M43,159.55s-2.32-3.47-9.08-11.95c-6,7.63-9.39,11.47-9.39,11.47" transform="translate(0 -49.8)"/><path class="cls-5" d="M43.89,179.61" transform="translate(0 -49.8)"/><path class="cls-6" d="M120.47,91.25H110.32a4,4,0,0,0-3.94-3.51H96.81a4,4,0,0,0-4,4,3.93,3.93,0,0,0,.43,1.75h-18a3.51,3.51,0,0,0,0,7h29.66a3.5,3.5,0,0,0,3-1.81h12.47a3.72,3.72,0,0,0,0-7.44Z" transform="translate(0 -49.8)"/><path class="cls-5" d="M124.47,94.25H114.32a4,4,0,0,0-3.94-3.51h-9.57a4,4,0,0,0-4,4,3.93,3.93,0,0,0,.43,1.75h-18a3.51,3.51,0,0,0,0,7h29.66a3.5,3.5,0,0,0,3-1.81h12.47a3.72,3.72,0,0,0,0-7.44Z" transform="translate(0 -49.8)"/><path class="cls-6" d="M212.28,59H188.72c-.41-3.53-2-5.92-4.56-5.92H139.51a4.58,4.58,0,0,0,0,9.15H162c.06,3,1.7,4.67,3.87,4.67h46.39a3.95,3.95,0,0,0,0-7.9Z" transform="translate(0 -49.8)"/><path class="cls-5" d="M214.58,56.22H191c-.41-3.53-2-5.92-4.56-5.92H141.81a4.58,4.58,0,0,0,0,9.15h22.5c.06,3,1.7,4.67,3.87,4.67h46.39a3.95,3.95,0,0,0,0-7.9Z" transform="translate(0 -49.8)"/><polyline class="cls-5" points="235.64 99.86 244.3 85.7 253.46 79.78 257.49 69.01 281.72 46.94 302.44 63.36 309.17 81.12 333.94 86.5 350.36 93.77 368.12 120.96 379.16 123.65 388.58 143.03 404.87 164.56"/><path class="cls-5" d="M438.92,214.36" transform="translate(0 -49.8)"/><line class="cls-5" x1="110.84" y1="192.61" x2="160.37" y2="192.61"/><polyline class="cls-5" points="133.21 102.64 103.88 83.72 72.65 109.92 43.58 119.61 0.5 166.89"/><polyline class="cls-5" points="103.88 83.72 84.38 118.86 71.16 122.18 57.4 134.06 30.15 162.96"/><polyline class="cls-5" points="281.72 46.94 286.56 68.74 293.83 78.7 299.75 95.84 317.25 105.75 333.13 128.99 347.13 151.74 356.28 164.56"/><line class="cls-5" x1="358.43" y1="154.47" x2="385.57" y2="154.47"/><line class="cls-5" x1="349.82" y1="144.47" x2="381.58" y2="144.92"/><line class="cls-5" x1="343.9" y1="134.33" x2="374.58" y2="134.91"/><line class="cls-5" x1="338.78" y1="123.65" x2="363.82" y2="123.65"/><line class="cls-5" x1="330.98" y1="114.63" x2="354.13" y2="114.63"/><line class="cls-5" x1="327.75" y1="105.75" x2="343.9" y2="105.75"/><line class="cls-5" x1="320.25" y1="95.84" x2="335.82" y2="95.84"/><line class="cls-5" x1="304.06" y1="88.52" x2="319" y2="88.52"/><line class="cls-5" x1="298.68" y1="80.58" x2="304.06" y2="80.58"/><line class="cls-5" x1="294.7" y1="73.69" x2="300.09" y2="73.69"/><line class="cls-5" x1="291.36" y1="65.53" x2="296.75" y2="65.53"/><line class="cls-5" x1="121.28" y1="60.21" x2="142.45" y2="60.21"/><path class="cls-5" d="M274.32,64.68" transform="translate(0 -49.8)"/><path class="cls-5" d="M225.8,79" transform="translate(0 -49.8)"/><line class="cls-5" x1="180.98" y1="29.23" x2="225.8" y2="29.23"/><line class="cls-5" x1="235.22" y1="29.23" x2="254.6" y2="29.23"/><polyline class="cls-5" points="0.5 167.14 79.62 155.99 97.84 157.44"/><line class="cls-5" x1="288.21" y1="58.74" x2="290.21" y2="58.74"/><line class="cls-5" x1="85.87" y1="101.78" x2="90.4" y2="101.78"/><line class="cls-5" x1="79.62" y1="107.88" x2="85.95" y2="107.88"/><line class="cls-5" x1="71.08" y1="113.74" x2="82.06" y2="113.74"/><path class="cls-5" d="M55.38,167.89" transform="translate(0 -49.8)"/><line class="cls-5" x1="68.13" y1="118.09" x2="56.09" y2="118.09"/><line class="cls-5" x1="44.76" y1="124.25" x2="57.86" y2="124.25"/><line class="cls-5" x1="36.22" y1="130.74" x2="53.38" y2="130.74"/><line class="cls-5" x1="31.56" y1="136.36" x2="48.32" y2="136.36"/><line class="cls-5" x1="24.4" y1="144.08" x2="43.41" y2="144.08"/><line class="cls-5" x1="104.95" y1="192.61" x2="95.51" y2="192.61"/><line class="cls-5" x1="89.09" y1="192.61" x2="55.38" y2="192.61"/><line class="cls-5" x1="118.88" y1="201.16" x2="74.11" y2="201.16"/><line class="cls-5" x1="125.16" y1="201.16" x2="141.31" y2="201.16"/><line class="cls-5" x1="157.73" y1="208.48" x2="130.14" y2="208.48"/><line class="cls-5" x1="90.97" y1="208.48" x2="120.85" y2="208.48"/><polyline class="cls-5" points="429.32 164.55 301.37 164.55 246.41 172.23"/><polyline class="cls-7" points="246.41 119.69 246.41 183.29 168.34 183.29 168.34 119.69"/><rect class="cls-8" x="168.34" y="180.08" width="78.07" height="3.25"/><rect class="cls-9" x="168.34" y="167.09" width="78.07" height="3.25"/><rect class="cls-6" x="190.03" y="97.18" width="34.7" height="31.51"/><rect class="cls-6" x="232.83" y="150.69" width="13.59" height="16.67"/><rect class="cls-6" x="216.42" y="151.33" width="13.59" height="15.76"/><rect class="cls-6" x="200.67" y="151.33" width="13.59" height="15.76"/><rect class="cls-6" x="184.46" y="151.33" width="13.59" height="15.76"/><rect class="cls-6" x="168.34" y="151.33" width="13.59" height="15.76"/><rect class="cls-10" x="153.36" y="138.44" width="5.17" height="5.33"/><rect class="cls-10" x="147.89" y="143.77" width="5.17" height="5.33"/><rect class="cls-10" x="153.36" y="149.46" width="5.17" height="5.33"/><rect class="cls-10" x="114.68" y="138.35" width="5.17" height="5.33"/><rect class="cls-10" x="109.04" y="143.84" width="5.17" height="5.33"/><rect class="cls-10" x="114.68" y="149.46" width="5.17" height="5.33"/><path class="cls-5" d="M166.24,231.69" transform="translate(0 -49.8)"/><path class="cls-11" d="M246.41,169.49" transform="translate(0 -49.8)"/><path class="cls-11" d="M168.34,169.49" transform="translate(0 -49.8)"/><polygon class="cls-12" points="262.48 128.69 254.75 128.69 207.38 77.46 160.01 128.69 152.27 128.69 207.38 69.72 262.48 128.69"/><polygon class="cls-13" points="211.22 73.78 207.38 77.62 203.54 73.78 207.38 69.72 211.22 73.78"/><polygon class="cls-12" points="211.22 73.78 207.38 77.62 203.54 73.78 207.38 69.72 211.22 73.78"/><polygon class="cls-14" points="94.33 128.72 152.27 128.72 176.62 102.64 113.09 102.64 94.33 128.72"/><polygon class="cls-14" points="94.33 128.72 152.27 128.72 176.62 102.64 113.09 102.64 94.33 128.72"/><polygon class="cls-6" points="144.85 120.67 121.58 120.67 133.21 107.78 144.85 120.67"/><polygon class="cls-14" points="144.85 120.67 121.58 120.67 133.21 107.78 144.85 120.67"/><rect class="cls-12" x="168.34" y="128.72" width="78.07" height="22.77"/><rect class="cls-15" x="147.5" y="138.23" width="11.31" height="16.57"/><rect class="cls-16" x="98.1" y="128.69" width="70.24" height="54.6"/><rect class="cls-17" x="93.56" y="167.14" width="74.36" height="16.15"/><rect class="cls-17" x="93.56" y="167.14" width="4.93" height="16.15"/><rect class="cls-18" x="98.51" y="167.14" width="4.96" height="16.15"/><rect class="cls-18" x="103.47" y="167.14" width="4.96" height="16.15"/><rect class="cls-18" x="108.43" y="167.14" width="4.96" height="16.15"/><rect class="cls-18" x="113.38" y="167.14" width="4.96" height="16.15"/><rect class="cls-18" x="113.38" y="167.14" width="4.96" height="16.15"/><rect class="cls-18" x="118.34" y="167.14" width="4.96" height="16.15"/><rect class="cls-18" x="123.3" y="167.14" width="4.96" height="16.15"/><rect class="cls-18" x="128.26" y="167.14" width="4.96" height="16.15"/><rect class="cls-18" x="133.21" y="167.14" width="4.96" height="16.15"/><rect class="cls-18" x="138.17" y="167.14" width="4.96" height="16.15"/><rect class="cls-18" x="143.13" y="167.14" width="4.96" height="16.15"/><rect class="cls-18" x="148.09" y="167.14" width="4.96" height="16.15"/><rect class="cls-18" x="153.04" y="167.14" width="4.96" height="16.15"/><rect class="cls-18" x="158" y="167.14" width="4.96" height="16.15"/><rect class="cls-18" x="162.96" y="167.14" width="4.96" height="16.15"/><rect class="cls-18" x="168.34" y="128.69" width="78.07" height="3.25"/><rect class="cls-18" x="168.34" y="138.44" width="78.07" height="3.25"/><rect class="cls-18" x="168.34" y="148.19" width="78.07" height="2.92"/><line class="cls-19" x1="207.38" y1="78.05" x2="207.38" y2="127.4"/><rect class="cls-12" x="190.03" y="97.18" width="34.7" height="31.51"/><rect class="cls-17" x="168.34" y="151.38" width="13.59" height="15.76"/><rect class="cls-20" x="184.46" y="151.38" width="13.59" height="15.76"/><rect class="cls-20" x="200.59" y="151.38" width="13.59" height="15.76"/><rect class="cls-20" x="216.71" y="151.38" width="13.59" height="15.76"/><line class="cls-17" x1="211.74" y1="103.46" x2="221.26" y2="117.18"/><line class="cls-17" x1="210.39" y1="111.64" x2="219.89" y2="126.58"/><line class="cls-17" x1="203.81" y1="103.46" x2="200.77" y2="99.21"/><rect class="cls-17" x="147.5" y="138.23" width="5.58" height="5.58"/><rect class="cls-17" x="147.5" y="143.77" width="5.58" height="5.58"/><rect class="cls-17" x="147.5" y="149.22" width="5.58" height="5.58"/><rect class="cls-17" x="153.15" y="138.23" width="5.58" height="5.58"/><rect class="cls-17" x="153.15" y="143.77" width="5.58" height="5.58"/><rect class="cls-17" x="153.15" y="149.22" width="5.58" height="5.58"/><rect class="cls-15" x="108.82" y="138.23" width="11.31" height="16.57"/><rect class="cls-17" x="108.82" y="138.23" width="5.58" height="5.58"/><rect class="cls-17" x="108.82" y="143.77" width="5.58" height="5.58"/><rect class="cls-17" x="108.82" y="149.22" width="5.58" height="5.58"/><rect class="cls-17" x="114.47" y="138.23" width="5.58" height="5.58"/><rect class="cls-17" x="114.47" y="143.77" width="5.58" height="5.58"/><rect class="cls-17" x="114.47" y="149.22" width="5.58" height="5.58"/><path class="cls-21" d="M204.37,215.5" transform="translate(0 -49.8)"/><path class="cls-21" d="M201.52,212.3" transform="translate(0 -49.8)"/><path class="cls-22" d="M245.41,201.91v14.25H233.83V201.91h11.59m1-1H232.83v16.25h13.59V200.91Z" transform="translate(0 -49.8)"/><line class="cls-5" x1="93.56" y1="172.23" x2="26.7" y2="192.61"/><line class="cls-5" x1="148.25" y1="214.99" x2="116" y2="214.99"/></g></g></svg>